<?xml version="1.0" encoding="UTF-8" standalone="no"?><!DOCTYPE svg PUBLIC "-//W3C//DTD SVG 1.1//EN" "http://www.w3.org/Graphics/SVG/1.1/DTD/svg11.dtd"><svg width="100%" height="100%" viewBox="0 0 3916 1524" version="1.1" xmlns="http://www.w3.org/2000/svg" xmlns:xlink="http://www.w3.org/1999/xlink" xml:space="preserve" xmlns:serif="http://www.serif.com/" style="fill-rule:evenodd;clip-rule:evenodd;stroke-linejoin:round;stroke-miterlimit:1.41421;"><g><path d="M536.472,214.267l484.121,273.835l0,547.796l-484.121,273.835l-484.122,-273.835l0,-547.796l484.122,-273.835Z" style="fill:#fff;fill-rule:nonzero;"/><path d="M934.152,1017.01l-381.668,215.916l0,-168.129l237.807,-130.851l143.861,83.064Zm26.145,-23.643l0,-451.471l-139.607,80.687l0,290.222l139.607,80.562Zm-823.007,23.643l381.668,215.916l0,-168.129l-237.933,-130.851l-143.735,83.064Zm-26.145,-23.643l0,-451.471l139.607,80.687l0,290.222l-139.607,80.562Zm16.388,-480.744l391.425,-221.42l0,162.5l-250.817,137.981l-2.002,1.126l-138.606,-80.187Zm816.376,0l-391.425,-221.42l0,162.5l250.817,137.856l2.002,1.126l138.606,-80.062Z" style="fill:#8ed6fb;fill-rule:nonzero;"/><path d="M518.958,1026.52l-234.68,-129.1l0,-255.571l234.68,135.479l0,249.192Zm33.526,0l234.68,-128.974l0,-255.697l-234.68,135.479l0,249.192Zm-252.319,-414.193l235.556,-129.475l235.556,129.475l-235.556,135.979l-235.556,-135.979Z" style="fill:#1c78c0;fill-rule:nonzero;"/><path d="M1508.84,935.195l103.204,0l105.206,-350.519l-100.577,0l-62.298,248.691l-66.426,-248.691l-87.067,0l-67.052,248.691l-61.672,-248.691l-100.577,0l104.58,350.519l103.204,0l65.05,-224.547l64.425,224.547Zm213.789,-174.258c0,105.205 71.68,183.015 184.391,183.015c87.192,0 134.103,-52.29 147.489,-77.059l-61.047,-46.286c-10.008,14.762 -37.529,42.908 -85.191,42.908c-51.664,0 -89.193,-33.525 -91.195,-80.436l246.815,0c0.625,-6.756 0.625,-13.386 0.625,-20.141c0,-114.588 -61.672,-187.018 -170.255,-187.018c-99.952,0 -171.632,79.06 -171.632,185.017Zm97.199,-38.28c4.004,-40.156 32.15,-71.054 75.809,-71.054c42.282,0 73.056,28.146 75.057,71.054l-150.866,0Zm279.59,212.538l87.192,0l0,-36.152c9.382,11.383 44.284,44.909 103.955,44.909c100.577,0 171.631,-75.683 171.631,-183.641c0,-108.583 -65.675,-184.266 -166.252,-184.266c-60.296,0 -95.198,33.526 -103.955,45.535l0,-171.007l-92.446,0l0,484.622l-0.125,0Zm89.819,-174.258c0,-65.676 38.905,-103.205 89.819,-103.205c53.666,0 89.819,42.283 89.819,103.205c0,62.297 -37.529,101.202 -89.819,101.202c-56.293,0 -89.819,-45.66 -89.819,-101.202Zm308.987,299.605l92.446,0l0,-161.624c8.757,11.383 43.533,44.909 103.955,44.909c100.577,0 166.252,-75.683 166.252,-184.266c0,-107.208 -71.054,-183.641 -171.631,-183.641c-59.671,0 -94.573,33.525 -103.955,45.535l0,-36.904l-87.192,0l0,475.991l0.125,0Zm89.819,-301.607c0,-55.668 33.526,-101.203 89.819,-101.203c52.29,0 89.819,38.905 89.819,101.203c0,61.047 -36.153,103.204 -89.819,103.204c-50.914,0 -89.819,-37.528 -89.819,-103.204Zm289.597,67.677c0,73.682 60.297,117.34 131.351,117.34c40.281,0 67.052,-12.009 85.19,-31.524l6.005,22.767l81.813,0l0,-221.92c0,-78.435 -33.526,-137.355 -146.112,-137.355c-53.666,0 -106.582,20.14 -138.106,41.532l34.902,63.048c26.145,-13.385 58.294,-24.769 93.196,-24.769c40.906,0 63.674,20.766 63.674,51.665l0,22.767c-12.76,-8.757 -40.281,-19.39 -75.808,-19.39c-81.813,-0.125 -136.105,46.786 -136.105,115.839Zm92.446,-2.752c0,-28.772 24.769,-48.913 60.297,-48.913c35.527,0 61.046,18.139 61.046,48.913c0,29.523 -25.519,48.287 -60.296,48.287c-34.777,0 -61.047,-19.39 -61.047,-48.287Zm436.46,38.279c-58.295,0 -99.826,-42.282 -99.826,-101.828c0,-56.293 36.903,-102.579 96.574,-102.579c39.53,0 66.426,19.39 81.812,33.526l26.146,-77.81c-22.768,-17.388 -59.046,-37.528 -110.585,-37.528c-106.582,0 -186.393,78.435 -186.393,185.017c0,106.581 77.809,183.015 187.018,183.015c50.914,0 89.194,-21.391 109.209,-37.529l-24.769,-75.683c-15.512,12.635 -43.659,31.399 -79.186,31.399Zm138.732,73.056l92.446,0l0,-181.014l117.34,181.014l108.583,0l-132.727,-191.772l123.345,-158.872l-103.955,0l-112.586,147.489l0,-281.467l-92.446,0l0,484.622Z" style="fill:#1a1c1c;fill-rule:nonzero;"/></g></svg>