<?xml version="1.0" encoding="UTF-8" standalone="no"?><!DOCTYPE svg PUBLIC "-//W3C//DTD SVG 1.1//EN" "http://www.w3.org/Graphics/SVG/1.1/DTD/svg11.dtd"><svg width="100%" height="100%" viewBox="0 0 410 255" version="1.1" xmlns="http://www.w3.org/2000/svg" xmlns:xlink="http://www.w3.org/1999/xlink" xml:space="preserve" xmlns:serif="http://www.serif.com/" style="fill-rule:evenodd;clip-rule:evenodd;stroke-linejoin:round;stroke-miterlimit:1.41421;"><g id="Layer-1" serif:id="Layer 1"><g><path d="M202.705,249.989c-1.32,0 -2.633,-0.345 -3.789,-1.014l-12.06,-7.136c-1.801,-1.007 -0.922,-1.364 -0.328,-1.572c2.403,-0.833 2.889,-1.026 5.454,-2.48c0.267,-0.151 0.621,-0.093 0.897,0.069l9.265,5.5c0.336,0.187 0.81,0.187 1.119,0l36.123,-20.849c0.337,-0.192 0.552,-0.579 0.552,-0.978l0,-41.688c0,-0.407 -0.215,-0.788 -0.561,-0.995l-36.108,-20.832c-0.334,-0.195 -0.777,-0.195 -1.113,0l-36.099,20.838c-0.351,0.201 -0.573,0.594 -0.573,0.989l0,41.688c0,0.399 0.222,0.777 0.569,0.966l9.896,5.717c5.369,2.685 8.657,-0.477 8.657,-3.653l0,-41.16c0,-0.582 0.468,-1.04 1.05,-1.04l4.58,0c0.573,0 1.047,0.458 1.047,1.04l0,41.16c0,7.165 -3.903,11.275 -10.696,11.275c-2.088,0 -3.732,0 -8.321,-2.261l-9.472,-5.454c-2.34,-1.352 -3.789,-3.881 -3.789,-6.59l0,-41.688c0,-2.708 1.449,-5.237 3.789,-6.583l36.122,-20.874c2.286,-1.292 5.324,-1.292 7.592,0l36.121,20.874c2.339,1.352 3.794,3.875 3.794,6.583l0,41.688c0,2.709 -1.455,5.229 -3.794,6.59l-36.121,20.856c-1.155,0.669 -2.465,1.014 -3.803,1.014" style="fill:#659f66;fill-rule:nonzero;"/><path d="M213.863,221.268c-15.807,0 -19.119,-7.255 -19.119,-13.341c0,-0.579 0.465,-1.041 1.044,-1.041l4.67,0c0.522,0 0.957,0.375 1.038,0.884c0.705,4.754 2.808,7.154 12.367,7.154c7.61,0 10.85,-1.721 10.85,-5.759c0,-2.327 -0.919,-4.055 -12.745,-5.213c-9.884,-0.978 -15.998,-3.162 -15.998,-11.068c0,-7.289 6.144,-11.636 16.445,-11.636c11.572,0 17.298,4.017 18.023,12.634c0.027,0.298 -0.077,0.583 -0.275,0.804c-0.198,0.207 -0.474,0.334 -0.765,0.334l-4.689,0c-0.485,0 -0.915,-0.346 -1.013,-0.817c-1.125,-5.003 -3.86,-6.602 -11.281,-6.602c-8.309,0 -9.275,2.895 -9.275,5.064c0,2.628 1.139,3.392 12.358,4.877c11.101,1.467 16.374,3.545 16.374,11.347c0,7.871 -6.562,12.379 -18.009,12.379" style="fill:#659f66;fill-rule:nonzero;"/><path d="M257.849,177.069l1.215,0c0.992,0 1.179,-0.699 1.179,-1.104c0,-1.07 -0.738,-1.07 -1.143,-1.07l-1.251,0l0,2.174Zm-1.475,-3.426l2.69,0c0.921,0 2.727,0 2.727,2.064c0,1.437 -0.922,1.731 -1.476,1.915c1.071,0.073 1.143,0.774 1.289,1.768c0.075,0.626 0.187,1.695 0.405,2.062l-1.655,0c-0.039,-0.367 -0.298,-2.357 -0.298,-2.466c-0.107,-0.443 -0.257,-0.663 -0.809,-0.663l-1.362,0l0,3.129l-1.511,0l0,-7.809Zm-3.222,3.886c0,3.242 2.616,5.858 5.819,5.858c3.243,0 5.858,-2.671 5.858,-5.858c0,-3.241 -2.651,-5.82 -5.858,-5.82c-3.167,0 -5.819,2.541 -5.819,5.82m12.799,0.02c0,3.83 -3.132,6.961 -6.962,6.961c-3.795,0 -6.962,-3.094 -6.962,-6.961c0,-3.942 3.242,-6.964 6.962,-6.964c3.758,0 6.962,3.022 6.962,6.964" style="fill:#659f66;fill-rule:nonzero;"/><path d="M90.844,86.888c0,-1.664 -0.876,-3.194 -2.313,-4.019l-38.298,-22.04c-0.648,-0.382 -1.374,-0.58 -2.108,-0.61l-0.396,0c-0.733,0.03 -1.458,0.228 -2.115,0.61l-38.298,22.04c-1.428,0.825 -2.316,2.355 -2.316,4.019l0.084,59.349c0,0.825 0.429,1.593 1.155,1.998c0.71,0.426 1.589,0.426 2.297,0l22.761,-13.033c1.44,-0.855 2.316,-2.364 2.316,-4.014l0,-27.727c0,-1.653 0.875,-3.183 2.309,-4.005l9.692,-5.582c0.722,-0.417 1.512,-0.621 2.318,-0.621c0.79,0 1.599,0.204 2.301,0.621l9.688,5.582c1.434,0.822 2.313,2.352 2.313,4.005l0,27.727c0,1.65 0.888,3.168 2.319,4.014l22.754,13.033c0.714,0.426 1.605,0.426 2.312,0c0.706,-0.405 1.15,-1.173 1.15,-1.998l0.075,-59.349Z" style="fill:#333;"/><path d="M271.567,117.791c0,0.412 -0.221,0.795 -0.579,1l-13.155,7.583c-0.357,0.205 -0.797,0.205 -1.154,0l-13.155,-7.583c-0.359,-0.205 -0.579,-0.588 -0.579,-1l0,-15.19c0,-0.412 0.22,-0.795 0.578,-1.002l13.154,-7.597c0.359,-0.207 0.799,-0.207 1.158,0l13.154,7.597c0.357,0.207 0.578,0.59 0.578,1.002l0,15.19Zm3.554,-112.488c-0.717,-0.397 -1.591,-0.389 -2.299,0.027c-0.707,0.415 -1.141,1.174 -1.141,1.994l0,58.775c0,0.577 -0.31,1.113 -0.809,1.402c-0.501,0.289 -1.118,0.289 -1.619,0l-9.593,-5.527c-1.431,-0.825 -3.191,-0.823 -4.622,0.001l-38.313,22.111c-1.432,0.827 -2.314,2.354 -2.314,4.007l0,44.23c0,1.653 0.882,3.18 2.312,4.008l38.312,22.127c1.432,0.827 3.195,0.827 4.628,0l38.318,-22.127c1.43,-0.828 2.313,-2.355 2.313,-4.008l0,-110.256c0,-1.677 -0.908,-3.223 -2.373,-4.04l-22.8,-12.724Z" style="fill:#333;"/><path d="M402.698,102.204c1.425,-0.827 2.302,-2.352 2.302,-4l0,-10.719c0,-1.648 -0.877,-3.174 -2.304,-4.001l-38.067,-22.102c-1.432,-0.833 -3.2,-0.834 -4.636,-0.006l-38.299,22.111c-1.431,0.826 -2.313,2.352 -2.313,4.005l0,44.219c0,1.664 0.893,3.198 2.337,4.02l38.061,21.688c1.404,0.801 3.124,0.81 4.537,0.025l23.021,-12.795c0.731,-0.407 1.185,-1.173 1.19,-2.007c0.005,-0.834 -0.439,-1.606 -1.161,-2.022l-38.542,-22.121c-0.72,-0.413 -1.163,-1.179 -1.163,-2.007l0,-13.858c0,-0.826 0.441,-1.591 1.158,-2.003l11.995,-6.916c0.714,-0.412 1.596,-0.412 2.31,0l12.001,6.916c0.717,0.412 1.157,1.177 1.157,2.003l0,10.903c0,0.829 0.443,1.594 1.16,2.006c0.717,0.414 1.601,0.41 2.316,-0.005l22.94,-13.334Z" style="fill:#333;"/><path d="M361.747,100.133c0.275,-0.159 0.613,-0.159 0.888,0l7.351,4.24c0.275,0.16 0.444,0.453 0.444,0.77l0,8.489c0,0.318 -0.169,0.61 -0.444,0.769l-7.351,4.242c-0.275,0.159 -0.613,0.159 -0.888,0l-7.346,-4.242c-0.275,-0.159 -0.444,-0.451 -0.444,-0.769l0,-8.489c0,-0.317 0.169,-0.61 0.444,-0.77l7.346,-4.24Z" style="fill:#659f66;"/><path d="M150.332,61.606l-38.099,21.986c-1.425,0.822 -2.301,2.34 -2.301,3.985l0,44.005c0,1.644 0.876,3.162 2.3,3.986l38.098,22.003c1.425,0.822 3.179,0.822 4.603,0l38.089,-22.003c1.424,-0.824 2.3,-2.342 2.3,-3.986l0,-44.007c0,-1.643 -0.876,-3.161 -2.301,-3.983l-38.089,-21.986c-0.711,-0.41 -1.506,-0.616 -2.3,-0.616c-0.795,0 -1.589,0.206 -2.3,0.616Z" style="fill:url(#_Linear1);fill-rule:nonzero;"/><path d="M110.879,134.377c0.362,0.475 0.819,0.881 1.353,1.191l32.681,18.874l5.441,3.129c0.814,0.469 1.743,0.668 2.655,0.601c0.305,-0.025 0.608,-0.081 0.905,-0.167l40.174,-73.564c-0.307,-0.331 -0.665,-0.617 -1.067,-0.849l-24.946,-14.399l-13.183,-7.587c-0.377,-0.217 -0.781,-0.373 -1.196,-0.475l-42.817,73.246Z" style="fill:url(#_Linear2);fill-rule:nonzero;"/><path d="M152.17,61.014c-0.638,0.063 -1.264,0.261 -1.838,0.592l-37.99,21.923l40.954,74.61c0.568,-0.082 1.124,-0.272 1.637,-0.568l38.089,-22.003c1.177,-0.681 1.98,-1.837 2.223,-3.144l-41.755,-71.334c-0.308,-0.061 -0.622,-0.092 -0.936,-0.092c-0.128,0 -0.257,0.005 -0.384,0.016Z" style="fill:url(#_Linear3);fill-rule:nonzero;"/><clipPath id="_clip4"><path d="M150.332,61.606l-38.099,21.986c-1.424,0.822 -2.301,2.34 -2.301,3.985l0,44.005c0,1.644 0.877,3.162 2.3,3.986l38.098,22.003c1.425,0.822 3.179,0.822 4.603,0l38.089,-22.003c1.424,-0.824 2.3,-2.342 2.3,-3.986l0,-44.007c0,-1.643 -0.876,-3.161 -2.301,-3.983l-38.089,-21.986c-0.711,-0.41 -1.506,-0.616 -2.3,-0.616c-0.795,0 -1.589,0.206 -2.3,0.616Z" clip-rule="nonzero"/></clipPath><g clip-path="url(#_clip4)"><path d="M193.118,135.568l-38.137,22.002c-0.524,0.303 -1.097,0.493 -1.683,0.572l0.76,1.384l42.36,-24.52l0,-0.578l-1.047,-1.789c-0.314,1.219 -1.142,2.286 -2.253,2.929Z" style="fill:url(#_Linear5);fill-rule:nonzero;"/></g><clipPath id="_clip6"><path d="M150.332,61.606l-38.099,21.986c-1.424,0.822 -2.301,2.34 -2.301,3.985l0,44.005c0,1.644 0.877,3.162 2.3,3.986l38.098,22.003c1.425,0.822 3.179,0.822 4.603,0l38.089,-22.003c1.424,-0.824 2.3,-2.342 2.3,-3.986l0,-44.007c0,-1.643 -0.876,-3.161 -2.301,-3.983l-38.089,-21.986c-0.711,-0.41 -1.506,-0.616 -2.3,-0.616c-0.795,0 -1.589,0.206 -2.3,0.616Z" clip-rule="nonzero"/></clipPath><g clip-path="url(#_clip6)"><path d="M193.118,135.568l-38.137,22.002c-0.524,0.303 -1.097,0.493 -1.683,0.572l0.76,1.384l42.36,-24.52l0,-0.578l-1.047,-1.789c-0.314,1.219 -1.142,2.286 -2.253,2.929Z" style="fill:url(#_Linear7);fill-rule:nonzero;"/></g></g></g><defs><linearGradient id="_Linear1" x1="0" y1="0" x2="1" y2="0" gradientUnits="userSpaceOnUse" gradientTransform="matrix(-34.4189,70.2147,-70.2147,-34.4189,168.117,77.9795)"><stop offset="0" style="stop-color:#697e66;stop-opacity:1"/><stop offset="1" style="stop-color:#82a178;stop-opacity:1"/></linearGradient><linearGradient id="_Linear2" x1="0" y1="0" x2="1" y2="0" gradientUnits="userSpaceOnUse" gradientTransform="matrix(96.577,-71.3563,71.3563,96.577,146.828,114.726)"><stop offset="0" style="stop-color:#697e66;stop-opacity:1"/><stop offset="0.14" style="stop-color:#697e66;stop-opacity:1"/><stop offset="0.91" style="stop-color:#9ab48e;stop-opacity:1"/><stop offset="1" style="stop-color:#9ab48e;stop-opacity:1"/></linearGradient><linearGradient id="_Linear3" x1="0" y1="0" x2="1" y2="0" gradientUnits="userSpaceOnUse" gradientTransform="matrix(88.0862,0,0,88.0862,108.584,109.57)"><stop offset="0" style="stop-color:#9ab48e;stop-opacity:1"/><stop offset="0.09" style="stop-color:#9ab48e;stop-opacity:1"/><stop offset="0.86" style="stop-color:#697e66;stop-opacity:1"/><stop offset="1" style="stop-color:#697e66;stop-opacity:1"/></linearGradient><linearGradient id="_Linear5" x1="0" y1="0" x2="1" y2="0" gradientUnits="userSpaceOnUse" gradientTransform="matrix(88.0862,0,0,88.0862,108.584,146.083)"><stop offset="0" style="stop-color:#9ab48e;stop-opacity:1"/><stop offset="0.09" style="stop-color:#9ab48e;stop-opacity:1"/><stop offset="0.86" style="stop-color:#697e66;stop-opacity:1"/><stop offset="1" style="stop-color:#697e66;stop-opacity:1"/></linearGradient><linearGradient id="_Linear7" x1="0" y1="0" x2="1" y2="0" gradientUnits="userSpaceOnUse" gradientTransform="matrix(-54.326,110.825,-110.825,-54.326,209.503,75.8978)"><stop offset="0" style="stop-color:#697e66;stop-opacity:1"/><stop offset="1" style="stop-color:#82a178;stop-opacity:1"/></linearGradient></defs></svg>