<?xml version="1.0" encoding="UTF-8" standalone="no"?><!DOCTYPE svg PUBLIC "-//W3C//DTD SVG 1.1//EN" "http://www.w3.org/Graphics/SVG/1.1/DTD/svg11.dtd"><svg width="100%" height="100%" viewBox="0 0 608 218" version="1.1" xmlns="http://www.w3.org/2000/svg" xmlns:xlink="http://www.w3.org/1999/xlink" xml:space="preserve" xmlns:serif="http://www.serif.com/" style="fill-rule:evenodd;clip-rule:evenodd;stroke-linejoin:round;stroke-miterlimit:1.41421;"><g><g><path d="M88.013,31.833c34.092,0.163 66.569,23.581 76.685,57.172c7.323,24.315 2.342,52.043 -13.452,72.387c-12.947,16.677 -32.637,27.922 -53.525,30.514c-20.873,2.589 -42.679,-3.37 -59.311,-16.338c-5.808,-4.527 -10.989,-9.849 -15.361,-15.779c-0.502,-0.68 -3.124,-5.405 -0.76,-9.455c1.859,-3.183 5.5,-4.874 8.943,-6.76c7.396,-4.05 22.691,-11.477 30.302,-15.122c0,0 3.706,-1.298 6.337,-0.532l9.002,4.001l-1.5,-34.046l0.029,-0.68c0.077,-0.6 0.077,-0.755 0.229,-1.341c1.078,-4.144 5.845,-6.959 10.105,-5.669c0.581,0.176 0.713,0.257 1.264,0.504l18,7.499l38.872,-53.798l0.411,-0.521c0.402,-0.432 0.491,-0.553 0.944,-0.933c4.772,-3.991 14.069,-0.032 13.121,7.206c-0.115,0.878 -0.376,1.737 -0.77,2.53c-0.263,0.53 -0.361,0.644 -0.686,1.136l-42.872,59.327c-2.375,3.013 -6.553,4.072 -10.103,2.477l-12.475,-4.737l1.5,32.193l-0.027,0.66c-0.553,4.451 -4.823,7.979 -9.265,7.275c-0.581,-0.092 -0.719,-0.15 -1.283,-0.313l-16.489,-6.496c-5.693,2.756 -19.069,9.298 -24.65,12.249l-0.037,0.02c16.7,17.592 43.754,24.541 67.167,16.611c24.998,-8.467 43.671,-33.368 43.671,-60.898c0,-24.348 -14.957,-48.076 -37.485,-58.435c-17.208,-7.912 -37.899,-7.7 -54.988,0.669c-21.426,10.491 -36.07,33.516 -36.077,57.767c-0.001,7.137 1.192,14.262 3.515,21.004l0.19,0.637c0.122,0.577 0.171,0.719 0.22,1.308c0.441,5.244 -5.279,10.097 -10.606,8.275c-4.944,-1.691 -6.301,-8.275 -7.592,-14.278c-6.279,-29.19 5.073,-61.488 29.142,-80.29c13.817,-10.795 31.095,-16.857 48.888,-16.998c0.259,-0.002 0.518,-0.002 0.777,-0.002Z" style="fill:#fff;fill-rule:nonzero;"/><clipPath id="_clip1"><path d="M88.013,31.833c34.092,0.163 66.569,23.581 76.685,57.172c7.323,24.315 2.342,52.043 -13.452,72.387c-12.947,16.677 -32.637,27.922 -53.525,30.514c-20.873,2.589 -42.679,-3.37 -59.311,-16.338c-5.808,-4.527 -10.989,-9.849 -15.361,-15.779c-0.502,-0.68 -3.124,-5.405 -0.76,-9.455c1.859,-3.183 5.5,-4.874 8.943,-6.76c7.396,-4.05 22.691,-11.477 30.302,-15.122c0,0 3.706,-1.298 6.337,-0.532l9.002,4.001l-1.5,-34.046l0.029,-0.68c0.077,-0.6 0.077,-0.755 0.229,-1.341c1.078,-4.144 5.845,-6.959 10.105,-5.669c0.581,0.176 0.713,0.257 1.264,0.504l18,7.499l38.872,-53.798l0.411,-0.521c0.402,-0.432 0.491,-0.553 0.944,-0.933c4.772,-3.991 14.069,-0.032 13.121,7.206c-0.115,0.878 -0.376,1.737 -0.77,2.53c-0.263,0.53 -0.361,0.644 -0.686,1.136l-42.872,59.327c-2.375,3.013 -6.553,4.072 -10.103,2.477l-12.475,-4.737l1.5,32.193l-0.027,0.66c-0.553,4.451 -4.823,7.979 -9.265,7.275c-0.581,-0.092 -0.719,-0.15 -1.283,-0.313l-16.489,-6.496c-5.693,2.756 -19.069,9.298 -24.65,12.249l-0.037,0.02c16.7,17.592 43.754,24.541 67.167,16.611c24.998,-8.467 43.671,-33.368 43.671,-60.898c0,-24.348 -14.957,-48.076 -37.485,-58.435c-17.208,-7.912 -37.899,-7.7 -54.988,0.669c-21.426,10.491 -36.07,33.516 -36.077,57.767c-0.001,7.137 1.192,14.262 3.515,21.004l0.19,0.637c0.122,0.577 0.171,0.719 0.22,1.308c0.441,5.244 -5.279,10.097 -10.606,8.275c-4.944,-1.691 -6.301,-8.275 -7.592,-14.278c-6.279,-29.19 5.073,-61.488 29.142,-80.29c13.817,-10.795 31.095,-16.857 48.888,-16.998c0.259,-0.002 0.518,-0.002 0.777,-0.002Z" clip-rule="nonzero"/></clipPath><g clip-path="url(#_clip1)"><path d="M150.654,62.532l-9.941,13.579l0.497,17.894l28.333,-28.829l-18.889,-2.644Z" style="fill-opacity:0.2;"/></g><path d="M167.93,25.276c0.845,0.196 1.086,0.318 1.54,0.561c1.723,0.922 2.91,2.765 3.021,4.719c0.012,0.208 0.009,0.26 0.008,0.468l-0.577,23.119c-0.188,4.123 -5.453,7.232 -9.2,4.48c-0.064,-0.047 -0.125,-0.096 -0.188,-0.144l-22.022,-17.614c-3.179,-2.651 -2.455,-8.694 2.024,-9.982c0.076,-0.022 0.153,-0.04 0.229,-0.061l22.599,-5.505c0.706,-0.157 0.833,-0.149 1.163,-0.161c0.363,-0.013 0.518,-0.047 1.403,0.12Z" style="fill:#fff;"/></g><g><path d="M217.977,76.061c6.919,0 13.029,1.675 18.329,5.024c5.3,3.349 7.949,9.735 7.949,19.157c0,6.477 -1.545,11.501 -4.637,15.071c-3.091,3.57 -6.551,5.981 -10.379,7.232c-3.827,1.251 -7.213,1.877 -10.158,1.877l-11.703,0l0,25.616c0,2.355 -2.209,3.533 -6.625,3.533l-3.754,0c-4.417,0 -6.625,-1.178 -6.625,-3.533l0,-69.56c0,-1.546 0.35,-2.668 1.049,-3.368c0.699,-0.699 1.822,-1.049 3.368,-1.049l23.186,0Zm-10.599,14.464l0,19.323l9.826,0c2.65,0 4.914,-0.7 6.791,-2.098c1.877,-1.399 2.815,-3.901 2.815,-7.508c0,-3.607 -0.938,-6.128 -2.815,-7.564c-1.877,-1.435 -4.141,-2.153 -6.791,-2.153l-9.826,0Z" style="fill:#fff;fill-rule:nonzero;"/><path d="M274.356,75.178c3.754,0 7.14,0.387 10.158,1.159c3.018,0.773 5.392,1.749 7.122,2.926c1.73,1.178 2.595,2.393 2.595,3.644c0,1.03 -0.332,2.319 -0.994,3.864c-0.663,1.546 -1.472,2.89 -2.429,4.03c-0.957,1.141 -1.84,1.712 -2.65,1.712c-0.294,0 -1.086,-0.276 -2.374,-0.828c-1.288,-0.552 -2.723,-1.012 -4.306,-1.38c-1.583,-0.368 -3.441,-0.552 -5.576,-0.552c-3.827,0 -6.496,0.625 -8.005,1.877c-1.509,1.251 -2.263,2.686 -2.263,4.306c0,2.723 0.957,4.803 2.871,6.238c1.913,1.435 4.894,2.963 8.943,4.582c4.196,1.767 7.618,3.441 10.268,5.024c2.65,1.582 4.951,3.864 6.901,6.845c1.951,2.982 2.926,6.791 2.926,11.428c0,5.668 -1.196,10.305 -3.588,13.912c-2.393,3.607 -5.466,6.22 -9.22,7.839c-3.754,1.62 -7.802,2.43 -12.145,2.43c-5.226,0 -9.809,-0.516 -13.747,-1.546c-3.938,-1.031 -6.956,-2.319 -9.053,-3.865c-2.098,-1.545 -3.147,-2.981 -3.147,-4.306c0,-1.104 0.405,-2.429 1.214,-3.975c0.81,-1.545 1.767,-2.907 2.871,-4.085c1.104,-1.178 2.024,-1.766 2.76,-1.766c0.368,0 1.362,0.404 2.982,1.214c2.134,1.104 4.232,2.024 6.293,2.76c2.061,0.736 4.38,1.105 6.956,1.105c2.871,0 5.318,-0.571 7.343,-1.712c2.024,-1.141 3.036,-3.147 3.036,-6.017c0,-2.356 -0.939,-4.214 -2.816,-5.576c-1.877,-1.362 -4.913,-2.889 -9.109,-4.582l-5.079,-2.209c-4.637,-2.208 -8.281,-4.95 -10.931,-8.225c-2.649,-3.276 -3.974,-7.932 -3.974,-13.968c0,-5.005 1.233,-9.182 3.698,-12.531c2.466,-3.35 5.687,-5.815 9.662,-7.398c3.974,-1.583 8.244,-2.374 12.807,-2.374Z" style="fill:#fff;fill-rule:nonzero;"/><path d="M348.912,76.061c1.178,0 2.024,0.442 2.539,1.325c0.516,0.884 0.773,2.282 0.773,4.196l0,3.423c0,1.914 -0.257,3.312 -0.773,4.195c-0.515,0.884 -1.361,1.325 -2.539,1.325l-27.824,0l0,16.01l24.843,0c1.178,0 2.024,0.442 2.539,1.325c0.516,0.884 0.773,2.282 0.773,4.196l0,3.423c0,1.914 -0.257,3.312 -0.773,4.195c-0.515,0.884 -1.361,1.325 -2.539,1.325l-24.843,0l0,17.887l27.934,0c1.178,0 2.025,0.442 2.54,1.325c0.515,0.883 0.773,2.282 0.773,4.196l0,3.423c0,1.913 -0.258,3.312 -0.773,4.195c-0.515,0.884 -1.362,1.325 -2.54,1.325l-40.521,0c-1.546,0 -2.668,-0.349 -3.368,-1.049c-0.699,-0.699 -1.049,-1.821 -1.049,-3.367l0,-68.456c0,-1.546 0.35,-2.668 1.049,-3.368c0.7,-0.699 1.822,-1.049 3.368,-1.049l40.411,0Z" style="fill:#fff;fill-rule:nonzero;"/><path d="M413.172,76.061c1.178,0 2.024,0.442 2.54,1.325c0.515,0.884 0.772,2.282 0.772,4.196l0,3.423c0,1.914 -0.257,3.312 -0.772,4.195c-0.516,0.884 -1.362,1.325 -2.54,1.325l-17.556,0l0,59.513c0,2.355 -2.208,3.533 -6.624,3.533l-3.865,0c-4.416,0 -6.624,-1.178 -6.624,-3.533l0,-59.513l-17.556,0c-1.178,0 -2.024,-0.441 -2.54,-1.325c-0.515,-0.883 -0.772,-2.281 -0.772,-4.195l0,-3.423c0,-1.914 0.257,-3.312 0.772,-4.196c0.516,-0.883 1.362,-1.325 2.54,-1.325l52.225,0Z" style="fill:#fff;fill-rule:nonzero;"/><path d="M435.542,94.721c8.759,0 15.402,2.54 19.929,7.619c4.527,5.079 6.79,12.439 6.79,22.082c0,9.643 -2.263,17.022 -6.79,22.138c-4.527,5.116 -11.17,7.674 -19.929,7.674c-8.76,0 -15.421,-2.558 -19.985,-7.674c-4.564,-5.116 -6.846,-12.495 -6.846,-22.138c0,-9.643 2.282,-17.003 6.846,-22.082c4.564,-5.079 11.225,-7.619 19.985,-7.619Zm0,12.918c-3.46,0 -6.036,1.399 -7.729,4.196c-1.693,2.797 -2.54,6.993 -2.54,12.587c0,11.262 3.423,16.893 10.269,16.893c3.459,0 6.017,-1.417 7.673,-4.251c1.656,-2.834 2.485,-7.048 2.485,-12.642c0,-5.594 -0.829,-9.79 -2.485,-12.587c-1.656,-2.797 -4.214,-4.196 -7.673,-4.196Z" style="fill:#fff;fill-rule:nonzero;"/><path d="M495.412,94.721c8.76,0 15.403,2.54 19.93,7.619c4.527,5.079 6.79,12.439 6.79,22.082c0,9.643 -2.263,17.022 -6.79,22.138c-4.527,5.116 -11.17,7.674 -19.93,7.674c-8.759,0 -15.421,-2.558 -19.984,-7.674c-4.564,-5.116 -6.846,-12.495 -6.846,-22.138c0,-9.643 2.282,-17.003 6.846,-22.082c4.563,-5.079 11.225,-7.619 19.984,-7.619Zm0,12.918c-3.459,0 -6.036,1.399 -7.729,4.196c-1.693,2.797 -2.539,6.993 -2.539,12.587c0,11.262 3.423,16.893 10.268,16.893c3.46,0 6.018,-1.417 7.674,-4.251c1.656,-2.834 2.484,-7.048 2.484,-12.642c0,-5.594 -0.828,-9.79 -2.484,-12.587c-1.656,-2.797 -4.214,-4.196 -7.674,-4.196Z" style="fill:#fff;fill-rule:nonzero;"/><path d="M537.533,70.099c4.417,0 6.625,1.178 6.625,3.533l0,62.936c0,1.693 0.313,2.907 0.939,3.643c0.625,0.736 1.637,1.104 3.036,1.104c0.368,0 0.865,-0.073 1.491,-0.221c0.625,-0.147 1.122,-0.22 1.49,-0.22c0.663,0 1.251,0.552 1.767,1.656c0.515,1.104 0.92,2.318 1.214,3.643c0.295,1.325 0.442,2.209 0.442,2.65c0,3.607 -3.533,5.411 -10.6,5.411c-10.747,0 -16.12,-5.963 -16.12,-17.887l0,-62.715c0,-2.355 2.208,-3.533 6.625,-3.533l3.091,0Z" style="fill:#fff;fill-rule:nonzero;"/><path d="M581.451,94.721c3.901,0 7.637,0.552 11.207,1.656c3.57,1.104 5.355,2.687 5.355,4.748c0,1.399 -0.552,3.202 -1.657,5.41c-1.104,2.209 -2.134,3.313 -3.091,3.313c-0.295,0 -1.362,-0.387 -3.202,-1.16c-1.84,-0.773 -3.938,-1.159 -6.294,-1.159c-3.901,0 -5.852,1.288 -5.852,3.864c0,1.693 0.645,2.982 1.933,3.865c1.288,0.883 3.404,1.914 6.348,3.091c1.914,0.737 3.313,1.325 4.196,1.767c2.944,1.399 5.282,3.294 7.011,5.686c1.73,2.393 2.595,5.576 2.595,9.551c0,5.741 -1.914,10.324 -5.741,13.746c-3.828,3.423 -9.128,5.135 -15.9,5.135c-4.564,0 -8.759,-0.7 -12.587,-2.098c-3.828,-1.399 -5.741,-3.202 -5.741,-5.41c0,-1.473 0.699,-3.258 2.097,-5.356c1.399,-2.097 2.65,-3.146 3.754,-3.146c0.589,0 1.399,0.294 2.43,0.883c1.545,0.663 2.962,1.196 4.25,1.601c1.289,0.405 2.779,0.607 4.472,0.607c2.061,0 3.644,-0.405 4.748,-1.214c1.104,-0.81 1.656,-1.951 1.656,-3.423c0,-1.619 -0.607,-2.871 -1.822,-3.754c-1.214,-0.883 -2.631,-1.638 -4.251,-2.264c-1.619,-0.625 -2.76,-1.048 -3.422,-1.269c-3.754,-1.472 -6.791,-3.386 -9.109,-5.742c-2.319,-2.355 -3.478,-5.962 -3.478,-10.82c0,-5.668 1.803,-10.103 5.41,-13.305c3.607,-3.202 8.502,-4.803 14.685,-4.803Z" style="fill:#fff;fill-rule:nonzero;"/></g></g></svg>